<svg width="48" height="48" viewBox="0 0 48 48" fill="none" xmlns="http://www.w3.org/2000/svg">
<g clip-path="url(#clip0_11100_15240)">
<mask id="mask0_11100_15240" style="mask-type:luminance" maskUnits="userSpaceOnUse" x="0" y="24" width="24" height="24">
<path d="M24 24H0V48H24V24Z" fill="white"/>
</mask>
<g mask="url(#mask0_11100_15240)">
<mask id="mask1_11100_15240" style="mask-type:luminance" maskUnits="userSpaceOnUse" x="1" y="25" width="22" height="22">
<path d="M21.7861 26.2144V45.7856H2.21484V26.2144H21.7861Z" fill="white" stroke="url(#paint0_linear_11100_15240)"/>
</mask>
<g mask="url(#mask1_11100_15240)">
<path d="M7 29.5713H18.4286V40.9999" stroke="url(#paint1_linear_11100_15240)" stroke-width="1.8"/>
<path d="M5.57422 42.4285L18.4314 29.5713" stroke="url(#paint2_linear_11100_15240)" stroke-width="1.8" stroke-linejoin="round"/>
</g>
</g>
<mask id="mask2_11100_15240" style="mask-type:luminance" maskUnits="userSpaceOnUse" x="24" y="0" width="24" height="24">
<path d="M48 0H24V24H48V0Z" fill="white"/>
</mask>
<g mask="url(#mask2_11100_15240)">
<mask id="mask3_11100_15240" style="mask-type:luminance" maskUnits="userSpaceOnUse" x="25" y="1" width="22" height="22">
<path d="M46.2863 1.71436H25.7148V22.2858H46.2863V1.71436Z" fill="white"/>
</mask>
<g mask="url(#mask3_11100_15240)">
<path d="M31 5.57129H42.4286V16.9999" stroke="#091221" stroke-width="1.8"/>
<path d="M29.5742 18.4285L42.4314 5.57132" stroke="#091221" stroke-width="1.8" stroke-linejoin="round"/>
</g>
</g>
</g>
<defs>
<linearGradient id="paint0_linear_11100_15240" x1="30.6052" y1="62.5052" x2="-3.77126" y2="56.3491" gradientUnits="userSpaceOnUse">
<stop stop-color="#8310FE"/>
<stop offset="1" stop-color="#4A3EFF"/>
</linearGradient>
<linearGradient id="paint1_linear_11100_15240" x1="23.0502" y1="50.0107" x2="3.95217" y2="46.5906" gradientUnits="userSpaceOnUse">
<stop stop-color="#8310FE"/>
<stop offset="1" stop-color="#4A3EFF"/>
</linearGradient>
<linearGradient id="paint2_linear_11100_15240" x1="24.8953" y1="25.6366" x2="16.7612" y2="21.3248" gradientUnits="userSpaceOnUse">
<stop stop-color="#8310FE"/>
<stop offset="1" stop-color="#4A3EFF"/>
</linearGradient>
<clipPath id="clip0_11100_15240">
<rect width="48" height="48" fill="white"/>
</clipPath>
</defs>
</svg>
