<svg width="192" height="55" viewBox="0 0 192 55" fill="none" xmlns="http://www.w3.org/2000/svg">
<path fill-rule="evenodd" clip-rule="evenodd" d="M99.768 16.5041H96.0829V15.7463H93.6657V16.5041H89.6533V18.1949H99.768V16.5041ZM64.1087 34.5282L60.9531 33.0548V34.5282L59.1628 34.5492V26.4457H60.9531V30.8448L62.2697 31.4762V23.9059H59.2186V22.2221H61.8239V19.4928H59.8316V17.8441L61.8239 17.7809V15.7884H63.8371V17.7809H66.2752V19.4928H63.8371V22.2221H67.1668V23.9059H64.2829V26.544H67.5639V28.4242H64.2829V32.4865L77.7622 32.5847V34.5282H64.1087ZM74.4814 19.1069H70.3366L69.9674 19.7033H67.8149L70.044 15.7954H72.2174L71.3675 17.2337H77.0379V19.1069L75.2616 21.1767H77.1563V31.1394H68.9294V29.4556H75.1431V27.007H68.9294V25.1337H75.1431V22.8605H68.9294V21.1767H72.6075L74.4814 19.1069ZM100.534 20.3849L100.493 22.3354H89.2563L89.2354 20.3849H90.9073V19.0449H93.1294V20.3849H96.5985V19.0449H98.8416V20.3849H100.534ZM88.4205 30.9711L86.5466 31.4341V22.2782H88.1349V20.3839H86.5466V15.7674H84.3523V20.3839H82.7153V22.2782H84.3523V32.0024L82.4854 32.4655V34.6826L88.4205 32.9987V30.9711ZM96.0831 30.0106H93.5962L93.5823 30.0176L91.4855 34.571H89.2007L91.2487 30.0176H89.8206V23.5909H99.9214V30.0176H98.1729V32.6907H101.022V34.4798H96.1528L96.0831 30.0106ZM98.2008 25.0432H91.5621V26.257H98.2008V25.0432ZM98.2008 27.3515H91.5621V28.5934H98.2008V27.3515ZM117.866 26.1378H119.837L117.893 22.5737H115.978L117.866 26.1378ZM117.893 17.3121L119.837 20.8692H117.866L115.929 17.3121H117.893ZM123.153 34.6054V29.5258H124.679V27.6525H123.153V15.7884H120.966V27.6525H115.372V29.5258H120.966V34.6054H123.153ZM106.267 23.3089H107.814V32.6402H106.267V23.3089ZM114.153 23.3089H112.607V32.6402H114.153V23.3089ZM111.296 20.4891H114.153V22.2221H111.296V34.6053H109.088V22.2221H106.232V20.4891H109.088V17.802L106.204 18.1317V16.4829L113.93 15.7533V17.4301L111.296 17.5985V20.4891ZM135.574 25.4775L133.595 26.0669V22.2221H135.574V20.2576H133.595V15.7674H131.297V20.2366H128.942V22.2011H131.297V26.6141L128.942 27.2035V29.182L131.297 28.5506V32.7251H130.05V34.6194H133.595V27.9191L135.574 27.2877V25.4775ZM140.7 15.7533H142.978V17.9774H147.583V19.9348H142.978V22.1098H146.865V25.709L143.257 29.4345L147.541 34.5211H144.991L141.717 30.7746L137.956 34.6194H135.462L140.547 29.3082L137.405 25.6669H140.227L141.94 27.8208L144.566 25.0144V24.0883H137.245V22.1098H140.7V19.9348H136.876V17.9774H140.7V15.7533Z" fill="white"/>
<path fill-rule="evenodd" clip-rule="evenodd" d="M128.796 50.6821C128.398 50.8575 127.709 50.9627 126.95 50.9627C126.323 50.9627 123.871 50.0015 123.871 47.2863C123.871 44.5711 126.162 43.7573 126.998 43.7573C128.512 43.7573 129.333 44.4403 129.773 44.8061L129.778 44.8097L129.847 44.9079L130.781 43.7433C130.328 43.2872 129.799 42.9224 129.214 42.6558C128.628 42.3892 127.932 42.2559 127.152 42.2559C126.455 42.2559 125.793 42.3892 125.187 42.6488C124.581 42.9083 124.052 43.2802 123.606 43.7362C123.16 44.1993 122.812 44.7465 122.568 45.364C122.324 45.9814 122.199 46.6549 122.199 47.3705C122.199 48.0862 122.324 48.7457 122.568 49.3631C122.812 49.9805 123.167 50.5348 123.613 50.9978C124.059 51.4679 124.595 51.8327 125.201 52.0923C125.807 52.3519 126.469 52.4852 127.179 52.4852C127.946 52.4852 128.642 52.3519 129.248 52.0853C129.854 51.8187 130.398 51.4469 130.851 51.0259L129.966 49.8191C129.652 50.1769 129.255 50.4646 128.796 50.6751V50.6821ZM107.556 42.6754C108.148 42.928 108.677 43.2928 109.13 43.7559C109.576 44.2189 109.931 44.7662 110.189 45.3766C110.447 45.987 110.572 46.6675 110.572 47.3691C110.572 48.0707 110.44 48.7372 110.189 49.3476C109.938 49.958 109.583 50.5053 109.137 50.9683C108.691 51.4314 108.169 51.7962 107.57 52.0558C106.971 52.3154 106.337 52.4487 105.64 52.4487C104.943 52.4487 104.289 52.3154 103.69 52.0558C103.091 51.7962 102.561 51.4314 102.108 50.9613C101.662 50.4983 101.3 49.951 101.049 49.3336C100.792 48.7232 100.666 48.0637 100.666 47.3551C100.666 46.6465 100.799 45.9799 101.049 45.3696C101.3 44.7662 101.655 44.2189 102.101 43.7559C102.547 43.2928 103.07 42.928 103.669 42.6754C104.261 42.4158 104.916 42.2895 105.612 42.2895C106.309 42.2895 106.964 42.4228 107.556 42.6754ZM107.277 50.3579C107.765 50.0633 108.148 49.6493 108.42 49.1372V49.1442C108.691 48.632 108.831 48.0286 108.831 47.3691C108.831 46.878 108.747 46.422 108.594 46.008C108.44 45.5941 108.211 45.2292 107.925 44.9205C107.639 44.6118 107.298 44.3663 106.908 44.2049C106.518 44.0365 106.079 43.9523 105.605 43.9523C104.978 43.9523 104.414 44.0997 103.94 44.3873C103.46 44.675 103.077 45.0819 102.805 45.5941C102.533 46.1062 102.394 46.7026 102.394 47.3621C102.394 47.8532 102.477 48.3163 102.631 48.7372C102.784 49.1512 103.007 49.523 103.293 49.8247C103.571 50.1264 103.919 50.372 104.31 50.5404C104.707 50.7158 105.139 50.8 105.605 50.8C106.232 50.8 106.796 50.6526 107.277 50.3579ZM74.3281 42.4523C75.0317 42.4523 75.6726 42.5856 76.2368 42.8452H76.2438C76.8011 43.1048 77.2539 43.4767 77.5743 43.9538C77.8948 44.4238 78.0619 45.0062 78.0619 45.6446C78.0619 46.2831 77.8948 46.8514 77.5743 47.3285C77.2539 47.8056 76.8011 48.1844 76.2438 48.444C75.6795 48.7036 75.0387 48.8369 74.3351 48.8369H71.8343L71.7995 52.3309H69.9326L69.9674 42.4173L71.0889 42.4523H74.3281ZM74.3351 47.3565C74.6068 47.3425 75.2755 47.2794 75.7283 46.8444C76.2159 46.3743 76.2577 45.7709 76.2577 45.6025C76.2577 45.0763 76.0279 44.5852 75.6308 44.2695C75.171 43.8976 74.6207 43.8415 74.3351 43.8415H71.7925V47.3285L74.3351 47.3565ZM174.088 50.5298C174.283 50.3263 174.534 50.2281 174.848 50.2281C175.147 50.2281 175.398 50.3263 175.6 50.5298C175.795 50.7332 175.899 50.9999 175.899 51.2875C175.899 51.5752 175.802 51.8348 175.6 52.0452C175.405 52.2557 175.161 52.361 174.848 52.361C174.534 52.361 174.283 52.2627 174.088 52.0452C173.893 51.8348 173.796 51.5962 173.796 51.2875C173.796 50.9788 173.893 50.7332 174.088 50.5298ZM86.6231 42.8452C86.0589 42.5856 85.418 42.4523 84.7144 42.4523H81.4752L80.3537 42.4173L80.3188 52.3309H82.1857L82.2206 48.8369H84.7214C85.4249 48.8369 86.0658 48.7036 86.6301 48.444C87.1874 48.1844 87.6401 47.8056 87.9606 47.3285C88.281 46.8514 88.4482 46.2831 88.4482 45.6446C88.4482 45.0062 88.281 44.4238 87.9606 43.9538C87.6401 43.4767 87.1874 43.1048 86.6301 42.8452H86.6231ZM86.1146 46.8865C85.6618 47.3215 84.993 47.3846 84.7214 47.3986L82.1788 47.3706V43.8836H84.7214C85.007 43.8836 85.5573 43.9397 86.0171 44.3116C86.4141 44.6273 86.644 45.1184 86.644 45.6446C86.644 45.82 86.6092 46.4164 86.1146 46.8865ZM166.747 47.8463L166.739 47.8462L166.746 47.8532L166.747 47.8463ZM170.487 47.8813L166.747 47.8463L166.781 46.5342L172.006 46.5693L171.971 46.7517C171.971 47.9795 171.748 49.0319 171.316 49.8879C171.107 50.3018 170.912 50.6105 170.661 50.9262C170.466 51.1788 169.366 52.4066 167.053 52.4066C166.356 52.4066 165.702 52.2803 165.109 52.0207C164.517 51.7612 163.988 51.3963 163.549 50.9403C163.103 50.4842 162.762 49.944 162.518 49.3336C162.281 48.7302 162.156 48.0777 162.156 47.3761C162.156 46.6745 162.274 46.015 162.518 45.4046C162.755 44.7942 163.096 44.261 163.535 43.805C163.974 43.3489 164.496 42.9911 165.088 42.7315C165.681 42.479 166.328 42.3456 167.018 42.3456C167.784 42.3456 168.467 42.479 169.045 42.7385C169.623 43.0052 170.139 43.363 170.585 43.812L169.665 44.9556L169.602 44.8574C169.171 44.4926 168.363 43.819 166.872 43.819C166.05 43.819 163.793 44.6118 163.793 47.2849C163.793 49.958 166.203 50.8982 166.816 50.8982C167.568 50.8982 168.244 50.7929 168.634 50.6175C169.052 50.4281 169.421 50.1615 169.728 49.8317C169.874 49.6493 169.986 49.488 170.069 49.3196C170.285 48.9126 170.424 48.4285 170.487 47.8813ZM145.598 52.345H147.485L147.52 42.4313L145.632 42.3962L145.598 52.345ZM98.1381 47.3075C97.8177 47.7845 97.3649 48.1634 96.8076 48.423L96.8007 48.437C96.6126 48.5282 96.4036 48.5984 96.1459 48.6686L98.6327 52.3239H96.4733L94.0909 48.865V47.3846H94.9059C95.1776 47.3776 95.8533 47.3075 96.2991 46.8725C96.7937 46.4024 96.8285 45.806 96.8285 45.6306C96.8285 45.1044 96.5986 44.6133 96.2016 44.2976C95.7418 43.9257 95.1915 43.8696 94.9059 43.8696H92.3633V47.3566H92.3772L92.3633 52.345L90.5034 52.3099L90.5382 42.3962L91.6597 42.4313H94.8989C95.6025 42.4313 96.2434 42.5646 96.8076 42.8242C97.3649 43.0838 97.8177 43.4557 98.1381 43.9327C98.4586 44.4028 98.6258 44.9852 98.6258 45.6236C98.6258 46.2621 98.4586 46.8304 98.1381 47.3075ZM189.414 42.3401L189.379 52.408H191.273L191.308 42.3751L189.414 42.3401ZM135.615 46.551L140.171 46.586L140.206 42.3835L142.094 42.4185L142.059 52.3322H140.171L140.206 48.0875L135.65 48.0524L135.615 52.3672L133.728 52.3322L133.755 42.3835L135.65 42.4185L135.615 46.551ZM157.44 49.3197L152.94 42.4185L151.386 42.3835L151.352 52.3322L152.912 52.3672L152.968 45.5863L157.468 52.3322H159.021L159.049 42.4185L157.496 42.3835L157.44 49.3197ZM58.522 52.3604L62.2906 42.3696L64.1714 42.3906L67.7171 52.3604H66.108L65.3069 50.1082L64.8053 48.8454L63.2449 44.4603L61.6567 48.8033L61.2109 50.0872L60.3471 52.3814L58.522 52.3604ZM115.427 42.3696L111.666 52.3604L113.484 52.3814L114.348 50.0872L114.794 48.8033L116.389 44.4603L117.942 48.8454L118.451 50.1082L119.245 52.3604H120.854L117.315 42.3906L115.427 42.3696ZM178.254 52.3604L182.023 42.3696L183.904 42.3906L187.449 52.3604H185.84L185.039 50.1082L184.531 48.8454L182.977 44.4603L181.389 48.8033L180.943 50.0872L180.079 52.3814L178.254 52.3604Z" fill="white"/>
<path d="M18.3826 40.7673L20.2079 53.5412L30.565 39.3855L35.1577 52.6457V9.21814L0.665527 54.318L18.3826 40.7673Z" fill="url(#paint0_linear_5010_14252)"/>
<path fill-rule="evenodd" clip-rule="evenodd" d="M35.4582 2.05557C35.4582 1.09486 34.6869 0.317993 33.733 0.317993C32.7791 0.317993 32.0078 1.09486 32.0078 2.05557C32.0078 3.01628 32.7791 3.79315 33.733 3.79315C34.0569 3.79315 34.3571 3.69826 34.6162 3.53814L38.5965 6.72864V33.154H39.7741V6.15933L35.3581 2.61895C35.417 2.44104 35.4582 2.2572 35.4582 2.05557ZM33.733 2.9629C33.2384 2.9629 32.8321 2.55371 32.8321 2.05557C32.8321 1.55742 33.2384 1.14823 33.733 1.14823C34.2276 1.14823 34.6339 1.55742 34.6339 2.05557C34.6339 2.55371 34.2276 2.9629 33.733 2.9629ZM38.5344 52.4264L38.6001 35.1931L39.7777 35.1976L39.712 52.4309L38.5344 52.4264ZM49.003 52.4216L49.0558 38.5686L50.2334 38.5731L50.1806 52.4262L49.003 52.4216ZM44.4136 10.0668C44.4136 9.10608 45.185 8.32921 46.1388 8.32921L46.1447 8.33514C47.0986 8.33514 47.8699 9.11201 47.8699 10.0727C47.8699 10.8437 47.3635 11.4901 46.6746 11.7154L46.5216 26.2684L42.9887 31.7005V52.4862H41.8111V24.9222H42.9887V29.5359L45.3439 25.9066L45.4911 11.6739C44.8611 11.4189 44.4136 10.7962 44.4136 10.0668ZM45.238 10.0668C45.238 10.5649 45.6442 10.9741 46.1388 10.9741C46.6334 10.9741 47.0397 10.5649 47.0397 10.0668C47.0397 9.56864 46.6334 9.15945 46.1388 9.15945C45.6442 9.15945 45.238 9.56864 45.238 10.0668ZM52.9632 4.53443C52.0388 4.53443 51.2852 5.29351 51.2852 6.22457C51.2852 6.59818 51.4147 6.94213 51.6208 7.22679L49.0241 10.5655V36.8605H50.2018V10.9747L52.61 7.87912C52.7218 7.90284 52.8455 7.92063 52.9632 7.92063C53.8877 7.92063 54.6413 7.16156 54.6413 6.2305C54.6413 5.29944 53.8877 4.54036 52.9632 4.54036V4.53443ZM52.9632 7.08446C52.4922 7.08446 52.1095 6.69899 52.1095 6.22457C52.1095 5.75014 52.4922 5.36468 52.9632 5.36468C53.4343 5.36468 53.817 5.75014 53.817 6.22457C53.817 6.69899 53.4343 7.08446 52.9632 7.08446ZM42.9889 23.0425H41.8172V9.45622C41.1401 9.21901 40.6514 8.57261 40.6514 7.81353C40.6514 6.85282 41.4286 6.07002 42.3824 6.07002C43.3363 6.07002 44.1135 6.85282 44.1135 7.81353C44.1135 8.56075 43.6425 9.19529 42.9889 9.44436V23.0425ZM42.3766 6.90027C41.8761 6.90027 41.4698 7.30946 41.4698 7.81353C41.4698 8.31761 41.8761 8.7268 42.3766 8.7268C42.877 8.7268 43.2833 8.31761 43.2833 7.81353C43.2833 7.30946 42.877 6.90027 42.3766 6.90027Z" fill="url(#paint1_linear_5010_14252)"/>
<defs>
<linearGradient id="paint0_linear_5010_14252" x1="35.1577" y1="9.21814" x2="21.7285" y2="54.3055" gradientUnits="userSpaceOnUse">
<stop stop-color="#A099EB"/>
<stop offset="1" stop-color="#7A28FF"/>
</linearGradient>
<linearGradient id="paint1_linear_5010_14252" x1="42.3826" y1="6.07006" x2="42.4182" y2="51.7383" gradientUnits="userSpaceOnUse">
<stop stop-color="#A099EB"/>
<stop offset="1" stop-color="#7129E5"/>
</linearGradient>
</defs>
</svg>
