<svg width="113" height="32" viewBox="0 0 113 32" fill="none" xmlns="http://www.w3.org/2000/svg">
<path fill-rule="evenodd" clip-rule="evenodd" d="M58.7274 9.5916H56.5437V9.14258H55.1112V9.5916H52.7335V10.5936H58.7274V9.5916ZM37.5961 20.2726L35.7261 19.3995V20.2726L34.6652 20.2851V15.483H35.7261V18.0898L36.5063 18.464V13.9779H34.6982V12.9801H36.2421V11.3628H35.0615V10.3857L36.2421 10.3483V9.16752H37.4351V10.3483H38.8799V11.3628H37.4351V12.9801H39.4083V13.9779H37.6993V15.5412H39.6436V16.6554H37.6993V19.0627L45.687 19.1209V20.2726H37.5961ZM43.7427 11.1341H41.2865L41.0677 11.4875H39.7921L41.1131 9.17165H42.401L41.8974 10.024H45.2576V11.1341L44.205 12.3606H45.3278V18.2644H40.4526V17.2666H44.1348V15.8156H40.4526V14.7055H44.1348V13.3584H40.4526V12.3606H42.6322L43.7427 11.1341ZM59.1814 11.8914L59.1567 13.0472H52.4982L52.4858 11.8914H53.4765V11.0973H54.7934V11.8914H56.8491V11.0973H58.1783V11.8914H59.1814ZM52.0028 18.1647L50.8924 18.4391V13.0133H51.8336V11.8908H50.8924V9.15505H49.5921V11.8908H48.622V13.0133H49.5921V18.7758L48.4858 19.0502V20.3641L52.0028 19.3662V18.1647ZM56.5437 17.5955H55.07L55.0617 17.5996L53.8192 20.298H52.4652L53.6788 17.5996H52.8326V13.7912H58.8182V17.5996H57.7821V19.1837H59.4704V20.2439H56.5849L56.5437 17.5955ZM57.7986 14.6519H53.8646V15.3711H57.7986V14.6519ZM57.7986 16.0197H53.8646V16.7556H57.7986V16.0197ZM69.4519 15.3005H70.6202L69.4685 13.1884H68.3332L69.4519 15.3005ZM69.4685 10.0704L70.6202 12.1784H69.452L68.3044 10.0704H69.4685ZM72.5852 20.3183V17.3082H73.4892V16.1981H72.5852V9.16752H71.289V16.1981H67.9742V17.3082H71.289V20.3183H72.5852ZM62.5788 13.6241H63.4953V19.1538H62.5788V13.6241ZM67.2518 13.6241H66.3353V19.1538H67.2518V13.6241ZM65.5592 11.9531H67.2517V12.9801H65.5592V20.3183H64.2506V12.9801H62.5582V11.9531H64.2506V10.3607L62.5416 10.5561V9.5791L67.1196 9.1467V10.1404L65.5592 10.2402V11.9531ZM79.9454 14.9092L78.7731 15.2585V12.9801H79.9454V11.8159H78.7731V9.15505H77.4108V11.8035H76.0155V12.9676H77.4108V15.5828L76.0155 15.932V17.1045L77.4108 16.7303V19.2041H76.6719V20.3266H78.7731V16.3561L79.9454 15.9819V14.9092ZM82.9836 9.1467H84.3335V10.4647H87.0621V11.6247H84.3335V12.9135H86.6369V15.0464L84.4986 17.2541L87.0373 20.2684H85.5265L83.5863 18.0482L81.3572 20.3266H79.8793L82.8928 17.1793L81.031 15.0215H82.7029L83.7184 16.2978L85.2747 14.6348V14.086H80.9361V12.9135H82.9836V11.6247H80.7173V10.4647H82.9836V9.1467Z" fill="black"/>
<path fill-rule="evenodd" clip-rule="evenodd" d="M75.9287 29.8454C75.6934 29.9493 75.2848 30.0117 74.8348 30.0117C74.4633 30.0117 73.0102 29.4421 73.0102 27.8331C73.0102 26.2241 74.3683 25.7418 74.8637 25.7418C75.7606 25.7418 76.2475 26.1465 76.5082 26.3633L76.5108 26.3654L76.5521 26.4236L77.1052 25.7335C76.8369 25.4632 76.5232 25.247 76.1764 25.089C75.8297 24.931 75.4169 24.8521 74.9545 24.8521C74.5417 24.8521 74.1496 24.931 73.7904 25.0849C73.4313 25.2387 73.1176 25.4591 72.8534 25.7293C72.5892 26.0037 72.3828 26.328 72.2383 26.6939C72.0938 27.0598 72.0195 27.4589 72.0195 27.883C72.0195 28.3071 72.0938 28.6979 72.2383 29.0637C72.3828 29.4296 72.5933 29.7581 72.8575 30.0325C73.1217 30.311 73.4395 30.5272 73.7987 30.6811C74.1578 30.8349 74.55 30.9139 74.971 30.9139C75.4251 30.9139 75.8379 30.8349 76.1971 30.6769C76.5562 30.5189 76.8782 30.2986 77.1465 30.0491L76.6222 29.334C76.4365 29.546 76.2012 29.7165 75.9287 29.8412V29.8454ZM63.3424 25.1007C63.6933 25.2503 64.007 25.4665 64.2754 25.7409C64.5395 26.0153 64.7501 26.3396 64.9028 26.7013C65.0555 27.0631 65.1299 27.4664 65.1299 27.8821C65.1299 28.2979 65.0514 28.6929 64.9028 29.0546C64.7542 29.4163 64.5437 29.7406 64.2795 30.015C64.0153 30.2894 63.7057 30.5056 63.3507 30.6594C62.9957 30.8133 62.62 30.8923 62.2072 30.8923C61.7944 30.8923 61.4064 30.8133 61.0514 30.6594C60.6964 30.5056 60.3826 30.2894 60.1143 30.0108C59.8501 29.7364 59.6355 29.4121 59.4868 29.0463C59.3341 28.6845 59.2598 28.2937 59.2598 27.8738C59.2598 27.4539 59.3382 27.0589 59.4868 26.6972C59.6355 26.3396 59.846 26.0153 60.1102 25.7409C60.3744 25.4665 60.684 25.2503 61.039 25.1007C61.3899 24.9468 61.7779 24.872 62.1907 24.872C62.6035 24.872 62.9915 24.951 63.3424 25.1007ZM63.1773 29.6533C63.4663 29.4787 63.6933 29.2334 63.8543 28.9298V28.934C64.0153 28.6305 64.0978 28.2729 64.0978 27.8821C64.0978 27.5911 64.0483 27.3208 63.9575 27.0755C63.8667 26.8302 63.7304 26.614 63.5612 26.4311C63.392 26.2482 63.1897 26.1026 62.9585 26.007C62.7273 25.9072 62.4673 25.8573 62.1866 25.8573C61.815 25.8573 61.4807 25.9447 61.2 26.1151C60.9151 26.2856 60.6881 26.5267 60.5271 26.8302C60.3661 27.1337 60.2836 27.4871 60.2836 27.878C60.2836 28.169 60.3331 28.4434 60.4239 28.6929C60.5147 28.9382 60.6468 29.1585 60.8161 29.3373C60.9812 29.5161 61.1876 29.6616 61.4188 29.7614C61.6541 29.8653 61.91 29.9152 62.1866 29.9152C62.5581 29.9152 62.8925 29.8279 63.1773 29.6533ZM43.6518 24.9685C44.0687 24.9685 44.4485 25.0475 44.7828 25.2013H44.787C45.1172 25.3552 45.3855 25.5755 45.5754 25.8582C45.7653 26.1368 45.8644 26.4819 45.8644 26.8602C45.8644 27.2386 45.7653 27.5753 45.5754 27.8581C45.3855 28.1408 45.1172 28.3653 44.787 28.5191C44.4526 28.673 44.0728 28.7519 43.6559 28.7519H42.1739L42.1533 30.8225H41.047L41.0676 24.9477L41.7322 24.9685H43.6518ZM43.6559 27.8747C43.8169 27.8664 44.2132 27.829 44.4815 27.5712C44.7704 27.2926 44.7952 26.9351 44.7952 26.8353C44.7952 26.5235 44.659 26.2324 44.4237 26.0453C44.1512 25.825 43.8251 25.7917 43.6559 25.7917H42.1492V27.8581L43.6559 27.8747ZM102.769 29.7551C102.885 29.6345 103.033 29.5763 103.219 29.5763C103.397 29.5763 103.545 29.6345 103.665 29.7551C103.781 29.8757 103.842 30.0337 103.842 30.2041C103.842 30.3746 103.785 30.5284 103.665 30.6532C103.549 30.7779 103.405 30.8403 103.219 30.8403C103.033 30.8403 102.885 30.782 102.769 30.6532C102.654 30.5284 102.596 30.3871 102.596 30.2041C102.596 30.0212 102.654 29.8757 102.769 29.7551ZM50.9377 25.2013C50.6034 25.0475 50.2236 24.9685 49.8066 24.9685H47.8871L47.2225 24.9477L47.2019 30.8225H48.3082L48.3288 28.7519H49.8108C50.2277 28.7519 50.6075 28.673 50.9419 28.5191C51.2721 28.3653 51.5404 28.1408 51.7303 27.8581C51.9202 27.5753 52.0193 27.2386 52.0193 26.8602C52.0193 26.4819 51.9202 26.1368 51.7303 25.8582C51.5404 25.5755 51.2721 25.3552 50.9419 25.2013H50.9377ZM50.6364 27.5961C50.3681 27.8539 49.9718 27.8913 49.8108 27.8996L48.304 27.883V25.8167H49.8108C49.98 25.8167 50.3061 25.8499 50.5786 26.0703C50.8139 26.2574 50.9501 26.5484 50.9501 26.8602C50.9501 26.9642 50.9295 27.3176 50.6364 27.5961ZM98.4183 28.1649L98.4141 28.1649L98.4182 28.169L98.4183 28.1649ZM100.635 28.1857L98.4183 28.1649L98.4389 27.3874L101.535 27.4082L101.514 27.5163C101.514 28.2439 101.382 28.8675 101.126 29.3747C101.002 29.62 100.887 29.803 100.738 29.9901C100.623 30.1398 99.9704 30.8673 98.5999 30.8673C98.1871 30.8673 97.799 30.7925 97.4481 30.6387C97.0973 30.4848 96.7835 30.2686 96.5235 29.9984C96.2593 29.7281 96.057 29.408 95.9125 29.0463C95.7722 28.6887 95.6979 28.3021 95.6979 27.8863C95.6979 27.4705 95.768 27.0797 95.9125 26.718C96.0529 26.3563 96.2551 26.0403 96.5152 25.7701C96.7753 25.4998 97.0849 25.2878 97.4358 25.134C97.7866 24.9843 98.1706 24.9053 98.5792 24.9053C99.0333 24.9053 99.4378 24.9843 99.7805 25.1381C100.123 25.2961 100.429 25.5081 100.693 25.7742L100.148 26.4519L100.111 26.3937C99.8548 26.1775 99.3759 25.7784 98.4925 25.7784C98.0054 25.7784 96.6679 26.2482 96.6679 27.8323C96.6679 29.4163 98.0962 29.9734 98.4595 29.9734C98.9053 29.9734 99.3057 29.9111 99.5369 29.8071C99.7846 29.6949 100.003 29.5369 100.185 29.3415C100.272 29.2334 100.338 29.1378 100.387 29.038C100.515 28.7968 100.598 28.51 100.635 28.1857ZM85.8855 30.8308H87.0042L87.0249 24.956L85.9062 24.9352L85.8855 30.8308ZM57.7614 27.8456C57.5715 28.1283 57.3031 28.3528 56.9729 28.5067L56.9688 28.515C56.8573 28.569 56.7335 28.6106 56.5807 28.6522L58.0544 30.8183H56.7748L55.363 28.7686V27.8913H55.846C56.0069 27.8872 56.4074 27.8456 56.6716 27.5878C56.9646 27.3092 56.9853 26.9558 56.9853 26.8519C56.9853 26.5401 56.8491 26.249 56.6138 26.062C56.3413 25.8416 56.0152 25.8083 55.846 25.8083H54.3392V27.8747H54.3475L54.3392 30.8308L53.237 30.81L53.2577 24.9352L53.9223 24.956H55.8418C56.2588 24.956 56.6385 25.035 56.9729 25.1888C57.3031 25.3427 57.5715 25.563 57.7614 25.8458C57.9512 26.1243 58.0503 26.4694 58.0503 26.8478C58.0503 27.2261 57.9512 27.5629 57.7614 27.8456ZM111.851 24.9019L111.83 30.8682H112.953L112.974 24.9227L111.851 24.9019ZM79.9701 27.3973L82.6698 27.4181L82.6905 24.9277L83.8092 24.9485L83.7885 30.8232H82.6698L82.6905 28.3078L79.9907 28.287L79.9701 30.844L78.8514 30.8232L78.8679 24.9277L79.9907 24.9485L79.9701 27.3973ZM92.9032 29.0381L90.2365 24.9485L89.316 24.9277L89.2953 30.8232L90.22 30.844L90.253 26.8256L92.9197 30.8232H93.8403L93.8568 24.9485L92.9362 24.9277L92.9032 29.0381ZM34.2853 30.8399L36.5185 24.9194L37.6331 24.9319L39.7343 30.8399H38.7807L38.306 29.5053L38.0088 28.7569L37.0841 26.1584L36.1429 28.732L35.8787 29.4928L35.3668 30.8524L34.2853 30.8399ZM68.0071 24.9194L65.7779 30.8399L66.8554 30.8524L67.3672 29.4928L67.6314 28.732L68.5767 26.1584L69.4973 28.7569L69.7986 29.5053L70.2692 30.8399H71.2228L69.1258 24.9319L68.0071 24.9194ZM105.238 30.8399L107.471 24.9194L108.586 24.9319L110.687 30.8399H109.733L109.258 29.5053L108.957 28.7569L108.037 26.1584L107.095 28.732L106.831 29.4928L106.319 30.8524L105.238 30.8399Z" fill="black"/>
<path d="M10.499 23.9697L11.5807 31.5394L17.7182 23.1509L20.4398 31.0088V5.27393L0 31.9998L10.499 23.9697Z" fill="url(#paint0_linear_5150_11886)"/>
<path fill-rule="evenodd" clip-rule="evenodd" d="M20.6178 1.02967C20.6178 0.460367 20.1607 0 19.5955 0C19.0302 0 18.5731 0.460367 18.5731 1.02967C18.5731 1.59898 19.0302 2.05935 19.5955 2.05935C19.7874 2.05935 19.9653 2.00312 20.1188 1.90824L22.4775 3.7989V19.4584H23.1754V3.46153L20.5585 1.36353C20.5934 1.2581 20.6178 1.14916 20.6178 1.02967ZM19.5955 1.56735C19.3024 1.56735 19.0616 1.32487 19.0616 1.02967C19.0616 0.734478 19.3024 0.491995 19.5955 0.491995C19.8886 0.491995 20.1293 0.734478 20.1293 1.02967C20.1293 1.32487 19.8886 1.56735 19.5955 1.56735ZM22.4408 30.879L22.4797 20.6667L23.1775 20.6694L23.1386 30.8817L22.4408 30.879ZM28.6443 30.8762L28.6756 22.667L29.3734 22.6697L29.3421 30.8789L28.6443 30.8762ZM25.9248 5.77703C25.9248 5.20772 26.3819 4.74736 26.9472 4.74736L26.9507 4.75087C27.5159 4.75087 27.973 5.21124 27.973 5.78055C27.973 6.2374 27.6729 6.62045 27.2647 6.75399L27.174 15.378L25.0804 18.597V30.9145H24.3826V14.5802H25.0804V17.3143L26.4761 15.1636L26.5634 6.72939C26.19 6.57828 25.9248 6.20929 25.9248 5.77703ZM26.4133 5.77703C26.4133 6.07223 26.6541 6.31471 26.9472 6.31471C27.2403 6.31471 27.481 6.07223 27.481 5.77703C27.481 5.48184 27.2403 5.23935 26.9472 5.23935C26.6541 5.23935 26.4133 5.48184 26.4133 5.77703ZM30.9912 2.4986C30.4434 2.4986 29.9968 2.94842 29.9968 3.50016C29.9968 3.72156 30.0735 3.92538 30.1956 4.09407L28.6569 6.07259V21.6548H29.3547V6.31507L30.7818 4.48064C30.8481 4.49469 30.9214 4.50523 30.9912 4.50523C31.539 4.50523 31.9856 4.05541 31.9856 3.50367C31.9856 2.95194 31.539 2.50211 30.9912 2.50211V2.4986ZM30.9912 4.00973C30.712 4.00973 30.4852 3.7813 30.4852 3.50016C30.4852 3.21902 30.712 2.99059 30.9912 2.99059C31.2703 2.99059 31.4971 3.21902 31.4971 3.50016C31.4971 3.7813 31.2703 4.00973 30.9912 4.00973ZM25.0805 13.4664H24.3861V5.41523C23.9849 5.27466 23.6952 4.8916 23.6952 4.44178C23.6952 3.87247 24.1558 3.40859 24.7211 3.40859C25.2863 3.40859 25.7469 3.87247 25.7469 4.44178C25.7469 4.88458 25.4678 5.2606 25.0805 5.4082V13.4664ZM24.7176 3.90059C24.421 3.90059 24.1802 4.14307 24.1802 4.44178C24.1802 4.74049 24.421 4.98297 24.7176 4.98297C25.0142 4.98297 25.2549 4.74049 25.2549 4.44178C25.2549 4.14307 25.0142 3.90059 24.7176 3.90059Z" fill="url(#paint1_linear_5150_11886)"/>
<defs>
<linearGradient id="paint0_linear_5150_11886" x1="20.4398" y1="5.27393" x2="12.4818" y2="31.9923" gradientUnits="userSpaceOnUse">
<stop stop-color="#A099EB"/>
<stop offset="1" stop-color="#4E00CC"/>
</linearGradient>
<linearGradient id="paint1_linear_5150_11886" x1="24.7211" y1="3.40863" x2="24.7423" y2="30.4713" gradientUnits="userSpaceOnUse">
<stop stop-color="#A099EB"/>
<stop offset="1" stop-color="#4100AB"/>
</linearGradient>
</defs>
</svg>
