<svg width="20" height="20" viewBox="0 0 20 20" fill="none" xmlns="http://www.w3.org/2000/svg">
<path d="M13.6641 8.27734C16.4515 8.27739 18.4696 10.1262 18.4697 12.165C18.4697 13.2047 17.946 14.1943 17.043 14.917L16.8574 15.0586C16.729 15.1456 16.6063 15.2687 16.5225 15.4365C16.4424 15.5968 16.4144 15.7673 16.4229 15.9336L16.4287 16.0566L16.2646 15.9619L16.2471 15.9512L16.2275 15.9424L16.1279 15.8955C16.0081 15.8444 15.8319 15.7862 15.6289 15.7861C15.6055 15.7861 15.5413 15.786 15.4756 15.792C15.4293 15.7962 15.345 15.8058 15.248 15.8398C14.7479 15.9804 14.2273 16.0527 13.6641 16.0527C10.8764 16.0527 8.8584 14.2039 8.8584 12.165C8.85854 10.1262 10.8765 8.27734 13.6641 8.27734ZM7.46191 3.2002C9.95127 3.20031 11.9974 4.4285 12.8809 6.08301C9.46542 6.41421 6.62512 8.88567 6.625 12.165C6.625 12.3621 6.6386 12.5569 6.65918 12.749C6.25512 12.701 5.8546 12.6199 5.4707 12.5156L5.46973 12.5166C5.29876 12.4673 5.14511 12.4707 5.10254 12.4707C4.83447 12.4707 4.59222 12.5557 4.4043 12.666L3.9502 12.9268C3.95877 12.8932 3.96878 12.8611 3.97656 12.8301L3.99707 12.7461V12.709C3.9996 12.696 4.00296 12.6784 4.00586 12.6602C4.01021 12.6327 4.01758 12.5799 4.01758 12.5166C4.01753 12.0919 3.79691 11.7829 3.56934 11.6016L3.55371 11.5889L3.53809 11.5771L3.30762 11.4053C2.18666 10.5224 1.53615 9.30452 1.53613 7.99902C1.53613 5.45734 4.06808 3.2002 7.46191 3.2002Z" stroke="black" stroke-width="1.4"/>
<path d="M9.81293 6.24154C9.81293 6.60226 9.51491 6.91594 9.13849 6.91594C8.76207 6.91594 8.46412 6.61794 8.46412 6.24154C8.46412 5.86513 8.76207 5.56714 9.13849 5.56714C9.51491 5.56714 9.81293 5.86513 9.81293 6.24154Z" fill="black"/>
<path d="M6.35661 6.24154C6.35661 6.60226 6.05862 6.91594 5.68221 6.91594C5.30581 6.91594 5.00781 6.61794 5.00781 6.24154C5.00781 5.86513 5.30581 5.56714 5.68221 5.56714C6.05862 5.56714 6.35661 5.86513 6.35661 6.24154Z" fill="black"/>
<path d="M16.2621 11.7483C16.2621 12.109 15.9641 12.4227 15.5877 12.4227C15.2113 12.4227 14.9133 12.1247 14.9133 11.7483C14.9133 11.3719 15.2113 11.0739 15.5877 11.0739C15.9641 11.0739 16.2621 11.3719 16.2621 11.7483Z" fill="black"/>
<path d="M12.8058 11.7483C12.8058 12.109 12.5078 12.4227 12.1314 12.4227C11.755 12.4227 11.457 12.1247 11.457 11.7483C11.457 11.3719 11.755 11.0739 12.1314 11.0739C12.5078 11.0739 12.8058 11.3719 12.8058 11.7483Z" fill="black"/>
</svg>
